<?xml version="1.0" encoding="utf-8"?>
<!-- Generator: Adobe Illustrator 21.1.0, SVG Export Plug-In . SVG Version: 6.00 Build 0)  -->
<svg version="1.1" id="Layer_1" xmlns="http://www.w3.org/2000/svg" xmlns:xlink="http://www.w3.org/1999/xlink" x="0px" y="0px"
	 viewBox="0 0 156 141.9" style="enable-background:new 0 0 156 141.9;" xml:space="preserve">
<style type="text/css">
	.st0{fill:#122240;}
	.st1{enable-background:new    ;}
</style>
<title>logo-vertical</title>
<g id="Layer_2">
	<g id="Layer_1-2">
		<path class="st0" d="M96.4,17.5L79.5,0.6c-0.8-0.8-2.1-0.8-3,0c0,0,0,0,0,0l-28,28l-28-28c-0.8-0.8-2.1-0.8-3,0c0,0,0,0,0,0
			L0.6,17.5c-0.8,0.8-0.8,2.2,0,3c0,0,0,0,0,0l28,28l-28,28c-0.8,0.8-0.8,2.2,0,3c0,0,0,0,0,0l16.9,16.9c0.8,0.8,2.1,0.8,3,0l28-28
			l28,28c0.8,0.8,2.2,0.8,3,0c0,0,0,0,0,0l16.9-16.9c0.8-0.8,0.8-2.2,0-3c0,0,0,0,0,0l-28-28l28-28C97.2,19.6,97.2,18.3,96.4,17.5
			C96.4,17.5,96.4,17.5,96.4,17.5z M64,46.9c0,0-0.1,0.1-0.1,0.1c-0.8,0.8-0.8,2.2,0,3c0,0,0,0,0,0l0,0l28,28L78,91.9l-28-28
			c-0.2-0.2-0.4-0.3-0.6-0.4c-0.9-0.4-1.9-0.2-2.5,0.5L19,91.9L5.1,78l28-28c0.8-0.8,0.8-2.2,0-3c0,0,0,0,0,0l-28-28L19,5.1l28,28
			l0,0c0.8,0.8,2.2,0.8,3,0c0,0,0,0,0,0c0,0,0.1-0.1,0.1-0.1L78,5.1L91.9,19L64,46.9z"/>
		<path class="st0" d="M155.4,17.5L138.5,0.6c-0.8-0.8-2.1-0.8-3,0c0,0,0,0,0,0l-28,28l-28-28c-0.8-0.8-2.1-0.8-3,0c0,0,0,0,0,0
			L59.6,17.5c-0.8,0.8-0.8,2.2,0,3c0,0,0,0,0,0l28,28l-28,28c-0.8,0.8-0.8,2.2,0,3c0,0,0,0,0,0l16.9,16.9c0.8,0.8,2.1,0.8,3,0l28-28
			l28,28c0.8,0.8,2.2,0.8,3,0c0,0,0,0,0,0l16.9-16.9c0.8-0.8,0.8-2.2,0-3c0,0,0,0,0,0l-28-28l28-28
			C156.2,19.6,156.2,18.3,155.4,17.5C155.4,17.5,155.4,17.5,155.4,17.5z M123,46.9c0,0-0.1,0.1-0.1,0.1c-0.8,0.8-0.8,2.2,0,3
			c0,0,0,0,0,0l0,0l28,28L137,91.9l-28-28c-0.2-0.2-0.4-0.3-0.6-0.4c-0.9-0.4-1.9-0.2-2.5,0.5L78,91.9L64.1,78l28-28
			c0.8-0.8,0.8-2.2,0-3c0,0,0,0,0,0l-28-28L78,5.1l28,28l0,0c0.8,0.8,2.2,0.8,3,0c0,0,0,0,0,0c0,0,0.1-0.1,0.1-0.1L137,5.1L150.9,19
			L123,46.9z"/>
		<g class="st1">
			<path d="M18.5,133.9c-1.2,1.4-2.8,2.1-4.7,2.1c-1.7,0-3-0.6-4-1.7v5.6h-4v-17.8h3.7v1.5h0.1c1-1.3,2.4-1.9,4.1-1.9
				c2,0,3.6,0.7,4.8,2.2c1.1,1.4,1.7,3.1,1.7,5.1C20.3,130.9,19.7,132.6,18.5,133.9z M15.3,126.5c-0.6-0.7-1.4-1-2.4-1
				s-1.7,0.3-2.4,1c-0.6,0.6-0.9,1.5-0.9,2.4c0,0.9,0.3,1.7,0.9,2.4c0.6,0.7,1.4,1,2.4,1c0.9,0,1.7-0.3,2.4-1s1-1.5,1-2.4
				C16.3,128,16,127.1,15.3,126.5z"/>
			<path d="M32.5,135.6v-1.4h0c-0.3,0.6-0.9,1.1-1.7,1.5c-0.7,0.3-1.4,0.4-2.2,0.4c-2,0-3.6-0.7-4.9-2.1c-1.2-1.3-1.8-3-1.8-5.1
				c0-2,0.6-3.7,1.8-5c1.3-1.4,2.9-2.1,4.9-2.1c0.8,0,1.5,0.1,2.2,0.4c0.8,0.3,1.3,0.8,1.7,1.4h0v-1.4h4v13.3H32.5z M31.6,126.5
				c-0.6-0.6-1.4-1-2.4-1c-1,0-1.8,0.3-2.4,1c-0.6,0.6-0.9,1.5-0.9,2.4c0,0.9,0.3,1.7,0.9,2.4c0.6,0.7,1.4,1,2.4,1
				c1,0,1.8-0.3,2.4-1c0.6-0.6,0.9-1.5,0.9-2.4C32.5,127.9,32.2,127.1,31.6,126.5z"/>
			<path d="M47.8,135.6v-7.3c0-0.9-0.1-1.5-0.4-1.9c-0.3-0.5-0.9-0.8-1.7-0.8c-0.9,0-1.5,0.3-1.8,0.8c-0.3,0.4-0.4,1.1-0.4,2v7.2h-4
				v-13.3h3.7v1.4h0.1c0.8-1.2,2-1.9,3.6-1.9c1.4,0,2.5,0.4,3.4,1.2c0.6,0.5,1,1.1,1.2,2c0.2,0.6,0.3,1.4,0.3,2.3v8.3H47.8z"/>
			<path d="M59.4,125.3v10.3h-4v-10.3h-2v-3h2v-4.4h4v4.4h1.9v3H59.4z"/>
			<path d="M74.7,134c-1.4,1.3-3.1,2-5.1,2s-3.8-0.7-5.1-2c-1.4-1.3-2.1-3-2.1-5.1c0-2,0.7-3.7,2.1-5.1c1.4-1.3,3.1-2,5.1-2
				s3.8,0.7,5.1,2c1.4,1.3,2.1,3,2.1,5.1C76.7,130.9,76,132.6,74.7,134z M71.8,126.5c-0.6-0.7-1.4-1-2.3-1c-0.9,0-1.7,0.3-2.3,1
				c-0.6,0.6-0.9,1.4-0.9,2.4c0,0.9,0.3,1.7,0.9,2.4c0.6,0.7,1.4,1,2.3,1c0.9,0,1.7-0.3,2.3-1c0.6-0.7,0.9-1.4,0.9-2.4
				C72.7,128,72.4,127.2,71.8,126.5z"/>
			<path d="M92.8,134.5c0,0.2,0,0.4,0,0.6c0,0.4-0.1,0.8-0.1,1.1c-0.1,0.8-0.3,1.5-0.7,2.1c-0.6,1-1.6,1.8-3,2.4
				c-1.2,0.5-2.4,0.7-3.8,0.7c-1.2,0-2.3-0.2-3.3-0.6c-1.1-0.4-1.9-1.1-2.6-2c-0.5-0.7-0.7-1.3-0.8-2.1h4.6c0.4,0.9,1.2,1.3,2.3,1.3
				c2.2,0,3.2-1.2,3.2-3.6v-0.4h0c-0.3,0.6-0.9,1.1-1.6,1.4c-0.6,0.3-1.3,0.5-2.1,0.5c-2,0-3.6-0.7-4.9-2.1c-1.2-1.3-1.9-3-1.9-5
				c0-2,0.6-3.7,1.8-5.1c1.3-1.4,2.9-2.1,4.9-2.1c0.8,0,1.4,0.1,2.1,0.4c0.7,0.3,1.3,0.7,1.6,1.3h0v-1.3h4V134.5z M87.9,126.5
				c-0.6-0.7-1.4-1-2.4-1c-0.9,0-1.7,0.3-2.3,1c-0.6,0.6-0.9,1.4-0.9,2.3c0,0.9,0.3,1.7,0.9,2.4c0.6,0.7,1.4,1,2.3,1
				c1,0,1.7-0.3,2.4-0.9c0.6-0.6,0.9-1.4,0.9-2.4C88.8,128,88.5,127.2,87.9,126.5z"/>
			<path d="M102.7,125.8c-1,0-1.8,0.2-2.2,0.5c-0.6,0.4-0.9,1-0.9,2v7.3h-4v-13.3h3.7v1.4h0.1c0.6-1.2,1.7-1.9,3.3-1.9V125.8z"/>
			<path d="M114.3,135.6v-1.4h0c-0.3,0.6-0.9,1.1-1.7,1.5c-0.7,0.3-1.4,0.4-2.2,0.4c-2,0-3.6-0.7-4.9-2.1c-1.2-1.3-1.8-3-1.8-5.1
				c0-2,0.6-3.7,1.8-5c1.3-1.4,2.9-2.1,4.9-2.1c0.8,0,1.5,0.1,2.2,0.4c0.8,0.3,1.3,0.8,1.7,1.4h0v-1.4h4v13.3H114.3z M113.4,126.5
				c-0.6-0.6-1.4-1-2.4-1c-1,0-1.8,0.3-2.4,1c-0.6,0.6-0.9,1.5-0.9,2.4c0,0.9,0.3,1.7,0.9,2.4c0.6,0.7,1.4,1,2.4,1
				c1,0,1.8-0.3,2.4-1c0.6-0.6,0.9-1.5,0.9-2.4C114.3,127.9,114,127.1,113.4,126.5z"/>
			<path d="M133.9,133.9c-1.2,1.4-2.8,2.1-4.7,2.1c-1.7,0-3-0.6-4-1.7v5.6h-4v-17.8h3.7v1.5h0.1c1-1.3,2.4-1.9,4.1-1.9
				c2,0,3.6,0.7,4.8,2.2c1.1,1.4,1.7,3.1,1.7,5.1C135.7,130.9,135.1,132.6,133.9,133.9z M130.7,126.5c-0.6-0.7-1.4-1-2.4-1
				s-1.7,0.3-2.4,1c-0.6,0.6-0.9,1.5-0.9,2.4c0,0.9,0.3,1.7,0.9,2.4c0.6,0.7,1.4,1,2.4,1c0.9,0,1.7-0.3,2.4-1s1-1.5,1-2.4
				C131.7,128,131.4,127.1,130.7,126.5z"/>
			<path d="M146.3,135.6v-7.2c0-0.8-0.1-1.5-0.4-1.9c-0.4-0.6-0.9-0.9-1.7-0.9c-0.8,0-1.4,0.2-1.8,0.8c-0.3,0.4-0.5,1.1-0.5,1.9v7.4
				h-4v-17.8h4v5.7h0c0.3-0.6,0.8-1,1.5-1.3c0.6-0.2,1.2-0.4,2-0.4c1.6,0,2.8,0.5,3.6,1.5c0.6,0.7,0.9,1.4,1.1,2.3
				c0.1,0.4,0.1,0.8,0.1,1.2c0,0.2,0,0.4,0,0.7v8.1H146.3z"/>
		</g>
	</g>
</g>
</svg>
