<svg width="900" height="50" viewBox="0 0 900 50" fill="none" xmlns="http://www.w3.org/2000/svg">
<circle cx="25" cy="25" r="25" fill="white" fill-opacity="0.1"/>
<path d="M18.2188 21.375V18.3438C19.625 18.2812 20.6094 18.1875 21.1719 18.0625C22.0677 17.8646 22.7969 17.4688 23.3594 16.875C23.7448 16.4688 24.0365 15.9271 24.2344 15.25C24.349 14.8438 24.4062 14.5417 24.4062 14.3438H28.1094V37H23.5469V21.375H18.2188Z" fill="white"/>
<circle cx="445" cy="25" r="25" fill="white" fill-opacity="0.1"/>
<path d="M437 37C437.042 35.375 437.391 33.8906 438.047 32.5469C438.682 31.0365 440.182 29.4375 442.547 27.75C444.599 26.2812 445.927 25.2292 446.531 24.5938C447.458 23.6042 447.922 22.5208 447.922 21.3438C447.922 20.3854 447.656 19.5885 447.125 18.9531C446.594 18.3177 445.833 18 444.844 18C443.49 18 442.568 18.5052 442.078 19.5156C441.797 20.099 441.63 21.026 441.578 22.2969H437.25C437.323 20.3698 437.672 18.8125 438.297 17.625C439.484 15.3646 441.594 14.2344 444.625 14.2344C447.021 14.2344 448.927 14.901 450.344 16.2344C451.76 17.5573 452.469 19.3125 452.469 21.5C452.469 23.1771 451.969 24.6667 450.969 25.9688C450.312 26.8333 449.234 27.7969 447.734 28.8594L445.953 30.125C444.839 30.9167 444.073 31.4896 443.656 31.8438C443.25 32.1979 442.906 32.6094 442.625 33.0781H452.516V37H437Z" fill="white"/>
<circle cx="875" cy="25" r="25" fill="white" fill-opacity="0.1"/>
<path d="M871.219 30.0469C871.219 30.9531 871.365 31.7031 871.656 32.2969C872.198 33.3906 873.182 33.9375 874.609 33.9375C875.484 33.9375 876.245 33.6406 876.891 33.0469C877.547 32.4427 877.875 31.5781 877.875 30.4531C877.875 28.9635 877.271 27.9688 876.062 27.4688C875.375 27.1875 874.292 27.0469 872.812 27.0469V23.8594C874.26 23.8385 875.271 23.6979 875.844 23.4375C876.833 23 877.328 22.1146 877.328 20.7812C877.328 19.9167 877.073 19.2135 876.562 18.6719C876.062 18.1302 875.354 17.8594 874.438 17.8594C873.385 17.8594 872.609 18.1927 872.109 18.8594C871.62 19.526 871.385 20.4167 871.406 21.5312H867.25C867.292 20.4062 867.484 19.3385 867.828 18.3281C868.193 17.4427 868.766 16.625 869.547 15.875C870.13 15.3438 870.823 14.9375 871.625 14.6562C872.427 14.375 873.411 14.2344 874.578 14.2344C876.745 14.2344 878.49 14.7969 879.812 15.9219C881.146 17.0365 881.812 18.5365 881.812 20.4219C881.812 21.7552 881.417 22.8802 880.625 23.7969C880.125 24.3698 879.604 24.7604 879.062 24.9688C879.469 24.9688 880.052 25.3177 880.812 26.0156C881.948 27.0677 882.516 28.5052 882.516 30.3281C882.516 32.2448 881.849 33.9323 880.516 35.3906C879.193 36.8385 877.229 37.5625 874.625 37.5625C871.417 37.5625 869.188 36.5156 867.938 34.4219C867.281 33.3073 866.917 31.849 866.844 30.0469H871.219Z" fill="white"/>
<path d="M49.5 26.5H420" stroke="white" stroke-opacity="0.1" stroke-width="3"/>
<path d="M470 26L850 26" stroke="white" stroke-opacity="0.1" stroke-width="3"/>
</svg>
